<mxfile host="app.diagrams.net" modified="2024-06-15T04:28:21.585Z" agent="Mozilla/5.0 (Windows NT 10.0; Win64; x64) AppleWebKit/537.36 (KHTML, like Gecko) Chrome/124.0.0.0 Safari/537.36" etag="zeqRRbypsg-XrX0i66KP" version="24.5.4" type="device">
  <diagram id="C5RBs43oDa-KdzZeNtuy" name="Page-1">
    <mxGraphModel dx="724" dy="416" grid="1" gridSize="10" guides="1" tooltips="1" connect="1" arrows="1" fold="1" page="1" pageScale="1" pageWidth="827" pageHeight="1169" math="0" shadow="0">
      <root>
        <mxCell id="WIyWlLk6GJQsqaUBKTNV-0" />
        <mxCell id="WIyWlLk6GJQsqaUBKTNV-1" parent="WIyWlLk6GJQsqaUBKTNV-0" />
        <mxCell id="4MCV2pIyI3NfezJSzRCd-22" style="edgeStyle=orthogonalEdgeStyle;rounded=0;orthogonalLoop=1;jettySize=auto;html=1;" edge="1" parent="WIyWlLk6GJQsqaUBKTNV-1" source="cywfLF21VMl5rOxU8mSu-0" target="4MCV2pIyI3NfezJSzRCd-21">
          <mxGeometry relative="1" as="geometry">
            <Array as="points">
              <mxPoint x="310" y="325" />
              <mxPoint x="310" y="325" />
            </Array>
          </mxGeometry>
        </mxCell>
        <mxCell id="4MCV2pIyI3NfezJSzRCd-23" value="Wi-Fi &amp;amp; Ethernet" style="edgeLabel;html=1;align=center;verticalAlign=middle;resizable=0;points=[];" vertex="1" connectable="0" parent="4MCV2pIyI3NfezJSzRCd-22">
          <mxGeometry x="-0.1148" relative="1" as="geometry">
            <mxPoint as="offset" />
          </mxGeometry>
        </mxCell>
        <mxCell id="cywfLF21VMl5rOxU8mSu-0" value="uC" style="whiteSpace=wrap;html=1;aspect=fixed;" parent="WIyWlLk6GJQsqaUBKTNV-1" vertex="1">
          <mxGeometry x="350" y="270" width="120" height="120" as="geometry" />
        </mxCell>
        <mxCell id="4MCV2pIyI3NfezJSzRCd-14" value="" style="edgeStyle=orthogonalEdgeStyle;rounded=0;orthogonalLoop=1;jettySize=auto;html=1;entryX=0.5;entryY=1;entryDx=0;entryDy=0;" edge="1" parent="WIyWlLk6GJQsqaUBKTNV-1" target="cywfLF21VMl5rOxU8mSu-1">
          <mxGeometry relative="1" as="geometry">
            <mxPoint x="470" y="330" as="sourcePoint" />
            <Array as="points">
              <mxPoint x="470" y="331" />
              <mxPoint x="490" y="331" />
              <mxPoint x="490" y="280" />
            </Array>
          </mxGeometry>
        </mxCell>
        <mxCell id="4MCV2pIyI3NfezJSzRCd-16" style="edgeStyle=orthogonalEdgeStyle;rounded=0;orthogonalLoop=1;jettySize=auto;html=1;entryX=0.25;entryY=0;entryDx=0;entryDy=0;" edge="1" parent="WIyWlLk6GJQsqaUBKTNV-1" source="cywfLF21VMl5rOxU8mSu-1" target="4MCV2pIyI3NfezJSzRCd-5">
          <mxGeometry relative="1" as="geometry">
            <Array as="points">
              <mxPoint x="740" y="280" />
              <mxPoint x="740" y="305" />
            </Array>
          </mxGeometry>
        </mxCell>
        <mxCell id="cywfLF21VMl5rOxU8mSu-1" value="" style="rounded=0;whiteSpace=wrap;html=1;direction=south;" parent="WIyWlLk6GJQsqaUBKTNV-1" vertex="1">
          <mxGeometry x="540" y="270" width="190" height="20" as="geometry" />
        </mxCell>
        <mxCell id="4MCV2pIyI3NfezJSzRCd-4" value="" style="endArrow=none;dashed=1;html=1;rounded=0;" edge="1" parent="WIyWlLk6GJQsqaUBKTNV-1">
          <mxGeometry width="50" height="50" relative="1" as="geometry">
            <mxPoint x="545" y="279.8" as="sourcePoint" />
            <mxPoint x="725" y="279.8" as="targetPoint" />
          </mxGeometry>
        </mxCell>
        <mxCell id="4MCV2pIyI3NfezJSzRCd-17" style="edgeStyle=orthogonalEdgeStyle;rounded=0;orthogonalLoop=1;jettySize=auto;html=1;exitX=0.75;exitY=0;exitDx=0;exitDy=0;entryX=0.5;entryY=0;entryDx=0;entryDy=0;" edge="1" parent="WIyWlLk6GJQsqaUBKTNV-1" source="4MCV2pIyI3NfezJSzRCd-5" target="4MCV2pIyI3NfezJSzRCd-7">
          <mxGeometry relative="1" as="geometry">
            <Array as="points">
              <mxPoint x="750" y="315" />
              <mxPoint x="750" y="380" />
            </Array>
          </mxGeometry>
        </mxCell>
        <mxCell id="4MCV2pIyI3NfezJSzRCd-5" value="" style="rounded=0;whiteSpace=wrap;html=1;direction=south;" vertex="1" parent="WIyWlLk6GJQsqaUBKTNV-1">
          <mxGeometry x="540" y="300" width="190" height="20" as="geometry" />
        </mxCell>
        <mxCell id="4MCV2pIyI3NfezJSzRCd-6" value="" style="endArrow=none;dashed=1;html=1;rounded=0;" edge="1" parent="WIyWlLk6GJQsqaUBKTNV-1">
          <mxGeometry width="50" height="50" relative="1" as="geometry">
            <mxPoint x="545" y="309.8" as="sourcePoint" />
            <mxPoint x="725" y="309.8" as="targetPoint" />
          </mxGeometry>
        </mxCell>
        <mxCell id="4MCV2pIyI3NfezJSzRCd-7" value="" style="rounded=0;whiteSpace=wrap;html=1;direction=south;" vertex="1" parent="WIyWlLk6GJQsqaUBKTNV-1">
          <mxGeometry x="540" y="370" width="190" height="20" as="geometry" />
        </mxCell>
        <mxCell id="4MCV2pIyI3NfezJSzRCd-8" value="" style="endArrow=none;dashed=1;html=1;rounded=0;" edge="1" parent="WIyWlLk6GJQsqaUBKTNV-1">
          <mxGeometry width="50" height="50" relative="1" as="geometry">
            <mxPoint x="545" y="379.8" as="sourcePoint" />
            <mxPoint x="725" y="379.8" as="targetPoint" />
          </mxGeometry>
        </mxCell>
        <mxCell id="4MCV2pIyI3NfezJSzRCd-9" value="" style="endArrow=none;dashed=1;html=1;dashPattern=1 3;strokeWidth=2;rounded=0;" edge="1" parent="WIyWlLk6GJQsqaUBKTNV-1">
          <mxGeometry width="50" height="50" relative="1" as="geometry">
            <mxPoint x="634.8" y="360" as="sourcePoint" />
            <mxPoint x="634.8" y="330" as="targetPoint" />
          </mxGeometry>
        </mxCell>
        <mxCell id="4MCV2pIyI3NfezJSzRCd-10" value="R1" style="text;html=1;align=center;verticalAlign=middle;whiteSpace=wrap;rounded=0;" vertex="1" parent="WIyWlLk6GJQsqaUBKTNV-1">
          <mxGeometry x="625" y="250" width="20" height="7.5" as="geometry" />
        </mxCell>
        <mxCell id="4MCV2pIyI3NfezJSzRCd-12" value="R2" style="text;html=1;align=center;verticalAlign=middle;whiteSpace=wrap;rounded=0;" vertex="1" parent="WIyWlLk6GJQsqaUBKTNV-1">
          <mxGeometry x="625" y="326.25" width="20" height="7.5" as="geometry" />
        </mxCell>
        <mxCell id="4MCV2pIyI3NfezJSzRCd-13" value="Rn" style="text;html=1;align=center;verticalAlign=middle;whiteSpace=wrap;rounded=0;" vertex="1" parent="WIyWlLk6GJQsqaUBKTNV-1">
          <mxGeometry x="630" y="400" width="20" height="7.5" as="geometry" />
        </mxCell>
        <mxCell id="4MCV2pIyI3NfezJSzRCd-21" value="" style="shape=cylinder3;whiteSpace=wrap;html=1;boundedLbl=1;backgroundOutline=1;size=15;" vertex="1" parent="WIyWlLk6GJQsqaUBKTNV-1">
          <mxGeometry x="90" y="270" width="90" height="110" as="geometry" />
        </mxCell>
      </root>
    </mxGraphModel>
  </diagram>
</mxfile>
